# xmcd
#
# Track frame offsets: 
#        150
#        15573
#        34791
#        52828
#        70279
#        85329
#        105307
#        124121
#        124577
#        139817
#        154519
#
# Disc length: 2254 seconds
#
# Revision: 0
# Processed by: cddbd v1.5.2PL0 Copyright (c) Steve Scherf et al.
# Submitted via: ExactAudioCopyFreeDBPlugin 1.0
#
DISCID=8408cc0b
DTITLE=Kent Burnside - My World Is So Cold
DYEAR=2013
DGENRE=Blues
TTITLE0=Country Boy
TTITLE1=My World Is So Cold
TTITLE2=Spoonful
TTITLE3=Miss Maybelle
TTITLE4=I'm Cryin'
TTITLE5=I Miss You
TTITLE6=I Heard
TTITLE7=The Cats Talkin'
TTITLE8=Honey Dew
TTITLE9=Feel Good
TTITLE10=Walkin' Blues
EXTD=
EXTT0=
EXTT1=
EXTT2=
EXTT3=
EXTT4=
EXTT5=
EXTT6=
EXTT7=
EXTT8=
EXTT9=
EXTT10=
PLAYORDER=
